<?xml version="1.0" encoding="UTF-8"?>
<svg width="22px" height="22px" viewBox="0 0 22 22" version="1.1" xmlns="http://www.w3.org/2000/svg" xmlns:xlink="http://www.w3.org/1999/xlink">
    <title>Close Icon</title>
    <g id="Interviewee-Test" stroke="none" stroke-width="1" fill="none" fill-rule="evenodd">
        <g id="Interview-Exercise" transform="translate(-1374.000000, -83.000000)" fill-rule="nonzero">
            <g id="Close-Icon" transform="translate(1374.000000, 83.000000)">
                <circle id="Oval-Copy-Copy-6" fill="#A1A1A1" cx="11" cy="11" r="11"></circle>
                <g id="Close-X" transform="translate(6.000000, 6.000000)" fill="#FFFFFF">
                    <path d="M5.77912955,5.00353903 L9.84195795,0.939564826 C10.0526807,0.728782666 10.0526807,0.384407431 9.84195795,0.162344472 C9.63123522,-0.0597184858 9.28695708,-0.0484376875 9.06495673,0.162344472 L5.00212833,4.22631867 L0.939299925,0.162344472 C0.728577193,-0.0484376875 0.384299051,-0.0484376875 0.162298701,0.162344472 C-0.0597016487,0.373126632 -0.048424031,0.717501868 0.162298701,0.939564826 L4.2251271,5.00353903 L0.162298701,9.06751323 C-0.048424031,9.27829539 -0.048424031,9.62267062 0.162298701,9.84473358 C0.273298876,9.95576506 0.406410286,10 0.550799313,10 C0.695188341,10 0.82829975,9.94448426 0.939299925,9.84473358 L5.00212833,5.78075938 L9.06495673,9.84473358 C9.1759569,9.95576506 9.30906831,10 9.45345734,10 C9.59784637,10 9.73095778,9.94448426 9.84195795,9.84473358 C10.0526807,9.63395142 10.0526807,9.28957618 9.84195795,9.06751323 L5.77912955,5.00353903 Z" id="Close-Icon"></path>
                </g>
            </g>
        </g>
    </g>
</svg>