<?xml version="1.0" encoding="UTF-8"?>
<svg width="22px" height="22px" viewBox="0 0 22 22" version="1.1" xmlns="http://www.w3.org/2000/svg" xmlns:xlink="http://www.w3.org/1999/xlink">
    <title>Help Icon</title>
    <g id="Interviewee-Test" stroke="none" stroke-width="1" fill="none" fill-rule="evenodd">
        <g id="Interview-Exercise" transform="translate(-1341.000000, -83.000000)" fill-rule="nonzero">
            <g id="Help-Icon" transform="translate(1341.000000, 83.000000)">
                <path d="M11,0 C8.08236,0 5.2844,1.15929 3.2219,3.2219 C1.1594,5.28451 0,8.08258 0,11 C0,13.91742 1.15929,16.7156 3.2219,18.7781 C5.28451,20.8406 8.08258,22 11,22 C13.91742,22 16.7156,20.84071 18.7781,18.7781 C20.8406,16.71549 22,13.91742 22,11 C22,8.08258 20.84071,5.2844 18.7781,3.2219 C16.71549,1.1594 13.91742,0 11,0 Z" id="Shape" fill="#A1A1A1"></path>
                <path d="M11,16.80756 L10.8925784,16.8299032 L10.6725784,16.8299032 C10.6064068,16.8170125 10.5402352,16.8058396 10.476642,16.787793 C9.875074,16.6305282 9.488358,16.046151 9.57946,15.430833 C9.6705532,14.815515 10.209386,14.367793 10.83071,14.390981 C11.452034,14.4141844 11.956494,14.901447 12.000318,15.521913 C12.0450044,16.141521 11.616176,16.695811 11.004312,16.807549 L11,16.80756 Z" id="Path" fill="#FFFFFF"></path>
                <path d="M14.52,8.81958 C14.3945318,9.224336 14.17625,9.594728 13.882352,9.899824 C13.545488,10.236688 13.17767,10.539188 12.782352,10.803892 C12.562352,10.9560022 12.36642,11.114136 12.16017,11.27225 L12.1593105,11.27225 C11.9719673,11.4269364 11.8318845,11.630608 11.7528165,11.860068 C11.7089881,11.9786612 11.6582847,12.09725 11.6118801,12.21671 C11.4958653,12.539846 11.1899201,12.75725 10.8461701,12.759846 C10.6562485,12.780471 10.4637441,12.7503928 10.2893061,12.6721892 C10.0211701,12.540704 9.83469806,12.2871892 9.79001606,11.9924332 C9.71954786,11.5833652 9.81493766,11.1640012 10.0538401,10.8262572 C10.2446219,10.5478252 10.4775161,10.3011832 10.7447721,10.0957912 C11.0326641,9.8603252 11.3300161,9.6360352 11.6247721,9.4005472 C11.8696981,9.213204 12.0742321,8.9794452 12.2271981,8.7121892 C12.4712661,8.2481212 12.4102447,7.6835132 12.0733697,7.2821892 C11.8989163,7.0914074 11.6677337,6.9633652 11.4133697,6.9169452 C11.0756257,6.8378816 10.7232957,6.8438986 10.3881257,6.9341327 C10.0409437,7.0295225 9.75133566,7.2701387 9.59405766,7.5941327 C9.49093266,7.7874929 9.40069746,7.9859967 9.30359166,8.1819507 C9.23312346,8.3297643 9.13687346,8.4646947 9.01998966,8.5798427 C8.81545786,8.7594529 8.54562566,8.8462407 8.27405766,8.8195987 C8.10905766,8.81530166 7.94748966,8.7714737 7.80312566,8.6924123 C7.53241566,8.5514759 7.36226766,8.2713103 7.36312566,7.9662363 C7.35195384,7.4798383 7.50750066,7.0054523 7.80312566,6.6195943 C8.14601766,6.1572423 8.59976766,5.7894463 9.12312566,5.5505263 C9.51844366,5.3631831 9.94126166,5.2411623 10.3752337,5.1895943 L10.6218757,5.1655307 L11.0618757,5.1655307 L11.2990577,5.1878739 L11.2990577,5.18701458 C11.8877337,5.22482818 12.4635177,5.37349978 12.9954557,5.62701458 C13.4706997,5.84615438 13.8763137,6.19248058 14.1659217,6.62819058 C14.3867797,6.97194058 14.5234217,7.36208858 14.5638137,7.76772458 C14.6231103,8.11748058 14.6085001,8.47586058 14.5199853,8.81958858 L14.52,8.81958 Z" id="Path" fill="#FFFFFF"></path>
            </g>
        </g>
    </g>
</svg>