<?xml version="1.0" encoding="UTF-8"?>
<svg width="22px" height="22px" viewBox="0 0 22 22" version="1.1" xmlns="http://www.w3.org/2000/svg" xmlns:xlink="http://www.w3.org/1999/xlink">
    <title>Person Icon</title>
    <g id="Interviewee-Test" stroke="none" stroke-width="1" fill="none" fill-rule="evenodd">
        <g id="Interview-Exercise" transform="translate(-998.000000, -84.000000)" fill-rule="nonzero">
            <g id="Person-Icon" transform="translate(998.000000, 84.000000)">
                <circle id="Oval-Copy-Copy-5" fill="#A1A1A1" cx="11" cy="11" r="11"></circle>
                <g id="np_user_2828832_000000" transform="translate(5.000000, 4.000000)" fill="#FFFFFF">
                    <path d="M8.49108266,6.46153846 C10.4283924,7.34912922 11.8297994,9.2939111 11.9947202,11.5771063 C12.0359504,11.8308425 11.8297994,12 11.5824182,12 L0.412302016,12 C0.164920806,12 0,11.8308425 0,11.5771063 C0.164920806,9.2939111 1.56632786,7.34964592 3.50363758,6.46153846 C4.20455701,7.01130638 5.06996545,7.34912922 6.01775033,7.34912922 C6.92434699,7.34912922 7.79013924,7.01081429 8.49060289,6.46153846 L8.49108266,6.46153846 Z" id="Path"></path>
                    <path d="M5.67857143,-2.79776202e-13 C7.46853178,-2.79776202e-13 8.92857143,1.3477289 8.92857143,3 C8.92857143,4.6522711 7.46853178,6 5.67857143,6 C3.84159703,6 2.42857143,4.6522711 2.42857143,3 C2.42857143,1.3477289 3.84159703,-2.79776202e-13 5.67857143,-2.79776202e-13 Z" id="Path"></path>
                </g>
            </g>
        </g>
    </g>
</svg>