<?xml version="1.0" encoding="UTF-8"?>
<svg width="188px" height="12px" viewBox="0 0 188 12" version="1.1" xmlns="http://www.w3.org/2000/svg" xmlns:xlink="http://www.w3.org/1999/xlink">
    <title>Group Copy 4</title>
    <g id="Interviewee-Test" stroke="none" stroke-width="1" fill="none" fill-rule="evenodd">
        <g id="Interview-Exercise" transform="translate(-1097.000000, -153.000000)">
            <g id="Group-Copy-4" transform="translate(1097.000000, 153.000000)">
                <path d="M5,1.77635684e-15 L34.1818182,1.77635684e-15 L34.1818182,1.77635684e-15 L34.1818182,12 L5,12 C2.23857625,12 2.64799805e-12,9.76142375 2.64677169e-12,7 L2.64677169e-12,5 C2.64732169e-12,2.23857625 2.23857625,3.17180057e-15 5,1.77635684e-15 Z" id="Rectangle-Copy-3" fill="#FB4000"></path>
                <rect id="Rectangle-Copy-4" fill="#D8D8D8" x="38.4518182" y="1.77635684e-15" width="34.1818182" height="12"></rect>
                <rect id="Rectangle-Copy-5" fill="#D8D8D8" x="76.9036364" y="1.77635684e-15" width="34.1818182" height="12"></rect>
                <rect id="Rectangle-Copy-6" fill="#D8D8D8" x="115.355455" y="1.77635684e-15" width="34.1818182" height="12"></rect>
                <path d="M153.807273,1.77635684e-15 L182.989091,1.77635684e-15 C185.750515,-2.07172388e-15 187.989091,2.23857625 187.989091,5 L187.989091,7 C187.989091,9.76142375 185.750515,12 182.989091,12 L153.807273,12 L153.807273,12 L153.807273,1.77635684e-15 Z" id="Rectangle-Copy-7" fill="#D8D8D8"></path>
            </g>
        </g>
    </g>
</svg>