<?xml version="1.0" encoding="UTF-8"?>
<svg width="22px" height="22px" viewBox="0 0 22 22" version="1.1" xmlns="http://www.w3.org/2000/svg" xmlns:xlink="http://www.w3.org/1999/xlink">
    <title>Settings Icons</title>
    <g id="Interviewee-Test" stroke="none" stroke-width="1" fill="none" fill-rule="evenodd">
        <g id="Interview-Exercise" transform="translate(-1030.000000, -84.000000)" fill-rule="nonzero">
            <g id="Settings-Icons" transform="translate(1030.000000, 84.000000)">
                <circle id="Oval-Copy-Copy-6" fill="#A1A1A1" cx="11" cy="11" r="11"></circle>
                <g id="np_gear_2817910_000000" transform="translate(4.000000, 4.000000)" fill="#FFFFFF">
                    <path d="M7.88196054,0 C8.10237367,0 8.3227868,0.16517683 8.3227868,0.440826254 L8.3780273,1.43296536 C8.43326779,1.65337849 8.54320413,1.81910138 8.70892702,1.87379161 C8.98459044,1.92903211 9.20500357,2.03896844 9.4254167,2.14945504 C9.59059353,2.25993603 9.81155272,2.20469554 9.92149325,2.09421454 L10.6932192,1.43296116 C10.8583961,1.26778433 11.1340455,1.26778433 11.3544726,1.43296116 L12.5670388,2.64552739 C12.7322157,2.86594052 12.7322157,3.14160394 12.5670388,3.30678077 L11.9057855,4.07850675 C11.7953045,4.24368358 11.7406086,4.40940647 11.850545,4.5745833 C11.961026,4.79499643 12.0709581,5.01540956 12.1262084,5.29107298 C12.1814489,5.45624981 12.3466215,5.56673641 12.5670346,5.6219727 L13.5591737,5.6772132 C13.8348372,5.6772132 14,5.89762633 14,6.11803946 L14,7.88196054 C14,8.10237367 13.8348232,8.3227868 13.5591737,8.3227868 L12.5670346,8.3780273 C12.3466215,8.43326779 12.1808986,8.54320413 12.1262084,8.70892702 C12.0709679,8.98459044 11.9610316,9.20500357 11.850545,9.4254167 C11.740064,9.59059353 11.7953045,9.81155272 11.9057855,9.92149325 L12.5670388,10.6932192 C12.7322157,10.8583961 12.7322157,11.1340455 12.5670388,11.3544726 L11.3544726,12.5670388 C11.1340595,12.7322157 10.8583961,12.7322157 10.6932192,12.5670388 L9.92149325,11.9057855 C9.81101226,11.7953045 9.59059353,11.7406086 9.4254167,11.850545 C9.20500357,11.961026 8.98459044,12.0709581 8.70892702,12.1262084 C8.54375019,12.1814489 8.43326359,12.3466215 8.3780273,12.5670346 L8.3227868,13.5591737 C8.3227868,13.8348372 8.10237367,14 7.88196054,14 L6.11803946,14 C5.89762633,14 5.6772132,13.8348232 5.6772132,13.5591737 L5.6219727,12.5670346 C5.56673221,12.3466215 5.45679587,12.1808986 5.29107298,12.1262084 C5.01540956,12.0709679 4.79499643,11.9610316 4.5745833,11.850545 C4.40940647,11.740064 4.24368358,11.7953045 4.07850675,11.9057855 L3.30678077,12.5670388 C3.14160394,12.7322157 2.86595452,12.7322157 2.64552739,12.5670388 L1.43296116,11.3544726 C1.26778433,11.1340595 1.26778433,10.8583961 1.43296116,10.6932192 L2.09421454,9.92149325 C2.20469554,9.81101226 2.25939137,9.59059353 2.14945504,9.4254167 C2.03897404,9.20500357 1.92904191,8.98459044 1.87379161,8.70892702 C1.81855111,8.54375019 1.65337849,8.43326359 1.43296536,8.3780273 L0.440826254,8.3227868 C0.165162829,8.3227868 0,8.10237367 0,7.88196054 L0,6.11803946 C0,5.89762633 0.16517683,5.6772132 0.440826254,5.6772132 L1.43296536,5.6219727 C1.65337849,5.56673221 1.81910138,5.45679587 1.87379161,5.29107298 C1.92903211,5.01540956 2.03896844,4.79499643 2.14945504,4.5745833 C2.25993603,4.40940647 2.20469554,4.24368358 2.09421454,4.07850675 L1.43296116,3.30678077 C1.26778433,3.14160394 1.26778433,2.86595452 1.43296116,2.64552739 L2.64552739,1.43296116 C2.86594052,1.26778433 3.14160394,1.26778433 3.30678077,1.43296116 L4.07850675,2.09421454 C4.24368358,2.20469554 4.40940647,2.25939137 4.5745833,2.14945504 C4.79499643,2.03897404 5.01540956,1.92904191 5.29107298,1.87379161 C5.45624981,1.81855111 5.56673641,1.65337849 5.6219727,1.43296536 L5.6772132,0.440826254 C5.6772132,0.165162829 5.89762633,0 6.11803946,0 L7.88196054,0 Z M7.00031224,3.69287899 C5.18122486,3.69287899 3.6929952,5.18110865 3.6929952,7.00019602 C3.6929952,8.8192834 5.18122486,10.3075131 7.00031224,10.3075131 C8.81939961,10.3075131 10.3076293,8.8192834 10.3076293,7.00019602 C10.3076293,5.18110865 8.81939961,3.69287899 7.00031224,3.69287899 Z" id="Shape"></path>
                </g>
            </g>
        </g>
    </g>
</svg>